<?xml version="1.0" standalone="no"?>
<!DOCTYPE svg PUBLIC "-//W3C//DTD SVG 20010904//EN"
 "http://www.w3.org/TR/2001/REC-SVG-20010904/DTD/svg10.dtd">
<svg version="1.0" xmlns="http://www.w3.org/2000/svg"
 width="650.000000pt" height="650.000000pt" viewBox="0 0 650.000000 650.000000"
 preserveAspectRatio="xMidYMid meet">
<metadata>
Created by potrace 1.11, written by Peter Selinger 2001-2013
</metadata>
<g transform="translate(0.000000,650.000000) scale(0.100000,-0.100000)"
fill="#000000" stroke="none">
<path d="M3056 6413 c-1 -1 -31 -5 -67 -8 -35 -3 -100 -10 -144 -16 -44 -6
-96 -13 -115 -15 -53 -7 -228 -43 -290 -61 -30 -8 -63 -17 -73 -19 -45 -8
-248 -78 -350 -120 -258 -105 -591 -300 -782 -458 -27 -22 -61 -50 -74 -61
-328 -270 -619 -647 -815 -1055 -172 -358 -255 -666 -302 -1120 -8 -73 -12
-420 -6 -434 3 -5 6 -34 8 -65 3 -51 22 -214 29 -251 2 -8 10 -55 20 -105 36
-193 116 -456 195 -635 27 -63 115 -238 169 -339 41 -76 200 -307 272 -396
147 -180 316 -349 479 -480 112 -90 301 -225 315 -225 3 0 21 -11 38 -24 42
-32 301 -166 397 -206 41 -17 84 -35 95 -40 201 -85 529 -168 790 -199 178
-21 223 -24 405 -23 203 0 271 5 435 29 61 8 121 17 135 19 14 1 66 12 115 23
823 181 1544 673 1992 1360 42 64 83 127 92 141 30 45 158 303 195 391 86 208
178 533 201 712 2 15 9 62 14 105 44 328 30 688 -39 1033 -56 277 -130 490
-265 765 -211 426 -494 778 -865 1075 -58 46 -139 107 -180 134 -41 28 -77 52
-80 56 -11 12 -221 130 -319 178 -159 80 -452 194 -555 216 -12 2 -46 11 -76
20 -30 8 -93 22 -140 31 -47 9 -92 18 -101 19 -9 2 -34 6 -55 9 -22 3 -50 8
-64 11 -14 2 -50 6 -80 9 -30 3 -86 8 -125 12 -63 7 -424 12 -429 7z m966
-1312 c8 -1 0 -30 -121 -426 -21 -71 -56 -184 -75 -250 -20 -66 -52 -169 -71
-230 -34 -112 -121 -399 -176 -580 -45 -151 -76 -250 -108 -355 -16 -52 -34
-111 -39 -130 -6 -19 -28 -93 -50 -165 -22 -71 -45 -146 -50 -165 -6 -19 -43
-141 -82 -270 -40 -129 -76 -248 -81 -265 -4 -16 -28 -97 -54 -180 -57 -184
-170 -557 -196 -644 -10 -35 -21 -66 -23 -69 -8 -7 -426 -8 -437 -1 -6 3 -4
23 5 50 20 60 169 557 196 649 11 41 25 84 30 95 5 11 28 85 50 165 23 80 48
163 55 185 7 22 26 85 43 140 17 55 44 145 61 200 103 341 176 581 197 655 14
47 29 96 34 110 4 14 20 66 35 115 15 50 30 101 35 115 5 14 20 66 35 115 14
50 44 146 65 215 32 105 78 257 219 725 10 33 28 92 40 130 l22 70 217 -2
c119 0 220 -2 224 -2z m-2022 -995 l142 -138 -373 -368 -373 -367 90 -89 c643
-634 645 -636 626 -657 -9 -11 -74 -77 -145 -147 l-127 -127 -511 511 -511
510 513 508 c283 279 517 506 521 505 3 -1 70 -64 148 -141z m3158 -363 l513
-508 -509 -513 -508 -513 -148 148 -148 148 368 364 369 363 -374 369 -374
369 144 140 c79 76 146 139 149 140 3 0 236 -228 518 -507z"/>
</g>
</svg>
